<svg version="1.0" xmlns="http://www.w3.org/2000/svg"
 width="180" height="70" viewBox="0 0 512.000000 512.000000"
 preserveAspectRatio="xMidYMid meet">

<g transform="translate(0.000000,512.000000) scale(0.100000,-0.100000)"
fill="#000000" stroke="none">
<path d="M3578 3781 c-175 -223 -414 -539 -533 -701 -118 -162 -219 -296 -223
-297 -4 -1 -106 137 -227 307 l-220 309 -54 1 -53 0 18 -27 c10 -16 121 -172
247 -347 210 -292 228 -321 217 -340 -7 -12 -125 -175 -262 -363 -136 -188
-248 -344 -248 -347 0 -3 24 -6 53 -6 l52 1 234 325 c129 178 237 326 240 328
3 2 112 -144 241 -325 l235 -328 58 -1 58 0 -19 28 c-11 15 -130 180 -265 366
l-245 340 53 75 c223 320 965 1404 963 1406 -2 2 -146 -180 -320 -404z"/>
<path d="M30 2685 l0 -715 45 0 45 0 1 228 c1 125 5 417 8 650 l6 422 435
-637 c276 -405 549 -791 749 -1058 172 -231 318 -424 324 -430 18 -17 -9 23
-763 1153 l-735 1101 -57 1 -58 0 0 -715z"/>
<path d="M1230 2685 l0 -715 486 0 485 0 -3 38 -3 37 -437 3 -438 2 0 310 0
310 410 0 410 0 0 40 0 40 -410 0 -410 0 0 285 0 285 435 0 435 0 0 40 0 40
-480 0 -480 0 0 -715z"/>
<path d="M3440 3360 l0 -40 250 0 250 0 0 -675 0 -675 50 0 50 0 0 675 0 675
250 0 250 0 0 40 0 40 -550 0 -550 0 0 -40z"/>
<path d="M4923 2376 c-36 -17 -53 -43 -53 -83 0 -45 21 -64 95 -88 81 -26 98
-44 71 -74 -27 -30 -81 -28 -110 4 -26 28 -66 34 -66 10 0 -8 13 -29 28 -46
23 -25 38 -33 78 -36 85 -9 134 28 134 101 0 41 -31 70 -94 87 -71 18 -74 19
-80 36 -17 44 80 75 106 33 13 -21 68 -29 68 -10 0 5 -13 24 -28 41 -33 37
-98 48 -149 25z"/>
<path d="M4750 2257 c0 -127 -6 -147 -42 -147 -10 0 -26 9 -35 20 -21 24 -63
27 -63 4 0 -28 56 -74 90 -74 37 0 85 23 94 45 3 9 6 75 6 146 l0 129 -25 0
-25 0 0 -123z"/>
<path d="M4494 2108 c-7 -22 19 -52 40 -45 17 6 29 34 23 51 -10 24 -54 21
-63 -6z"/>
</g>
</svg>
